<svg xmlns="http://www.w3.org/2000/svg" width="133.307" height="133.547" viewBox="0 0 133.307 133.547">
  <g id="Group_2" data-name="Group 2" transform="translate(165.245 -658.973) rotate(45)">
    <g id="ink-pen-svgrepo-com" transform="translate(416 571.472)">
      <path id="Path_241" data-name="Path 241" d="M4.38,2h55.1V5.616A10.341,10.341,0,0,1,49.141,15.956H14.721A10.341,10.341,0,0,1,4.38,5.616Z" transform="translate(-4.38 -2)" fill="none" stroke="#8e4162" stroke-miterlimit="10" stroke-width="7"/>
      <path id="Path_242" data-name="Path 242" d="M29.446,52.9,5.33,30.735,12.236,5.81h34.42l6.906,24.925Z" transform="translate(-1.895 20.058)" fill="none" stroke="#8e4162" stroke-miterlimit="10" stroke-width="7"/>
      <circle id="Ellipse_1" data-name="Ellipse 1" cx="3.435" cy="3.435" r="3.435" transform="translate(24.116 41.577)" fill="none" stroke="#8e4162" stroke-miterlimit="10" stroke-width="7"/>
      <line id="Line_1" data-name="Line 1" y1="23.323" transform="translate(27.551 49.633)" fill="none" stroke="#8e4162" stroke-miterlimit="10" stroke-width="7"/>
    </g>
    <g id="book-svgrepo-com" transform="translate(416 515.468)">
      <path id="Path_243" data-name="Path 243" d="M25.036,11.955C22.024,8.121,17.38,4.288,5.872,4.006A1.346,1.346,0,0,0,4.5,5.358V38.482a1.393,1.393,0,0,0,1.372,1.375c11.508.376,16.151,5.478,19.164,9.312m0-37.213C28.048,8.121,32.691,4.288,44.2,4.006a1.334,1.334,0,0,1,1.372,1.338V38.48A1.394,1.394,0,0,1,44.2,39.856c-11.508.376-16.152,5.478-19.164,9.312m0-37.213V49.168" transform="translate(2.345 -4.006)" fill="none" stroke="#bf9aca" stroke-linejoin="round" stroke-width="5"/>
      <path id="Path_244" data-name="Path 244" d="M49.192,6h6.2a1.369,1.369,0,0,1,1.369,1.369v35.7a1.661,1.661,0,0,1-2.318,1.394,26.1,26.1,0,0,0-10.567-2.149,27.154,27.154,0,0,0-14.5,4.756,27.154,27.154,0,0,0-14.5-4.756A26.1,26.1,0,0,0,4.318,44.465,1.661,1.661,0,0,1,2,43.071V7.369A1.369,1.369,0,0,1,3.369,6h6.2" transform="translate(-2 -0.54)" fill="none" stroke="#bf9aca" stroke-linejoin="round" stroke-width="5"/>
    </g>
  </g>
</svg>
